<?xml version="1.0" encoding="utf-8"?>
<svg version="1.1" id="Layer_1" xmlns="http://www.w3.org/2000/svg" xmlns:xlink="http://www.w3.org/1999/xlink" x="0px" y="0px"
	 width="500px" height="500px" viewBox="0 0 500 500" style="enable-background:new 0 0 500 500;" xml:space="preserve">
<g>
	<g>
		<path style="fill:#FFFFFF;" d="M52.5,449.5c-0.6-0.6-0.6-2.5,0.2-2.7c2.6,0.2,5.9,0.2,9.7,0.2c2.5,0,4.8,0,7.5-0.2
			c0,4.9,2.7,9.6,6.1,17l5.1,11.1c0.7,1.6,3.1,6,4.2,8c1-1.9,2.2-4.3,4.3-8.9l3.9-8.6c3.7-8.1,5.4-11.8,7.1-18.5
			c3.5,0.3,5.9,0.2,8.2,0.2c2.5,0,6.1-0.1,8.8-0.2c0.8,0.5,0.8,2,0.2,2.7l-2.2,0.4c-3.2,0.6-4.7,1.5-4.7,5.6
			c0,16.2,0.1,24.6,0.6,34.5c0.2,3.6,0.5,5.5,3.5,5.9l2.5,0.3c0.6,0.6,0.6,2.4-0.2,2.7c-3.5-0.2-6.8-0.2-10.6-0.2
			c-3.5,0-7.7,0.1-11.4,0.2c-0.9-0.4-1-2.2-0.2-2.7l2.3-0.3c3.5-0.5,3.5-1.4,3.5-6.2l-0.1-20.4v-8.9h-0.2
			C95,473,88.8,486,83.7,499.3c-0.4,0.3-0.9,0.5-1.5,0.5c-0.7,0-1.5-0.2-2-0.5c-3-9.7-12.1-28.8-16.4-39h-0.1
			c-0.3,5.1-0.5,8.2-0.5,12.2c-0.1,5.1-0.2,12.9-0.2,17.6c0,3.9,0.5,5,3.5,5.5l3,0.5c0.6,0.5,0.5,2.3-0.2,2.7
			c-2.8-0.2-6.1-0.2-9.1-0.2c-2.5,0-5.6,0.1-8.7,0.2c-1-0.3-1-2.4-0.3-2.7l1.4-0.2c3.9-0.7,4.1-1.2,4.6-6c0.4-3.8,0.8-10.7,1.2-18.1
			c0.3-5.3,0.5-11.6,0.5-15.8c0-4.5-1.7-5.6-4.8-6.2L52.5,449.5z"/>
		<path style="fill:#FFFFFF;" d="M128,458.3c0-7.3-0.5-7.8-3.9-8.5l-1.9-0.4c-0.6-0.5-0.7-2.2,0.2-2.7c3.7,0.2,7.5,0.2,11.2,0.2
			c3.8,0,7.5-0.1,11.2-0.2c0.6,0.5,0.6,2.2,0,2.7l-1.8,0.3c-3.5,0.6-3.9,1.3-3.9,8.5v18.1c0,9.2,1,19.3,12.7,19.3
			c9.8,0,12.8-8.8,12.8-19.5v-9.5c0-6.3-0.3-12.3-1.2-14.3c-0.7-1.6-2.4-2.1-4.5-2.5l-2.1-0.4c-0.6-0.6-0.5-2.2,0-2.7
			c4.1,0.2,7.1,0.2,10.3,0.2c2.8,0,5.7-0.1,8.6-0.2c0.5,0.5,0.6,2,0,2.7l-1.4,0.3c-2,0.5-3.5,0.9-4.2,2.6c-0.8,2-1.2,8-1.2,14.3v8.8
			c0,7.4-0.7,14.1-4.9,18.9c-3.4,3.7-9,5.6-15.2,5.6c-5.8,0-11.1-0.9-15.2-4.4c-4-3.4-5.7-9.2-5.7-17.7V458.3z M136.9,438.4
			c0-2.9,2-5,4.7-5s4.6,2.2,4.6,4.6c0,3-1.9,4.9-4.6,4.9C139,442.9,137,441.4,136.9,438.4z M153,438.4c0-2.9,2-5,4.7-5
			c2.7,0,4.6,2.2,4.6,4.6c0,3-1.9,4.9-4.6,4.9C155,442.9,153,441.4,153,438.4z"/>
		<path style="fill:#FFFFFF;" d="M226.6,485.4c0,5.1,0,10,0.2,12.6c-0.5,0.9-2.7,1.8-4.5,1.8c-0.1,0-2.6-4-6.2-8.5l-17.8-22.4
			c-4.5-5.6-7-8.9-8.4-10c-0.4,0.8-0.4,2.1-0.4,5v15.2c0,6.4,0.3,12.2,1.2,14.3c0.7,1.6,2.5,2.2,4.5,2.5l2.2,0.3
			c0.6,0.6,0.5,2.3,0,2.7c-4.2-0.2-7.2-0.2-10.3-0.2c-2.8,0-5.7,0.1-8.6,0.2c-0.5-0.5-0.6-2.1,0-2.7l1.3-0.2
			c2.1-0.4,3.6-0.9,4.2-2.6c0.8-2.1,1.1-8,1.1-14.3v-19.9c0-4.3-0.1-5.6-0.5-6.7c-0.6-1.3-1.7-2.3-4.4-2.7l-2.2-0.3
			c-0.5-0.6-0.5-2.5,0.3-2.7c3.6,0.2,7.4,0.2,10.6,0.2c2.6,0,4.8-0.1,6.5-0.2c0.8,3.5,5.8,9.5,12.7,17.9l6.5,7.8
			c3.4,4.1,5.6,6.8,7.4,8.6c0.3-0.8,0.3-2.1,0.3-3.5v-10.8c0-6.3-0.3-12.2-1.2-14.3c-0.7-1.6-2.4-2.2-4.5-2.5l-2.1-0.3
			c-0.6-0.6-0.5-2.3,0-2.7c4.2,0.2,7.2,0.2,10.3,0.2c2.8,0,5.6-0.1,8.6-0.2c0.5,0.5,0.6,2.1,0,2.7l-1.4,0.2c-2,0.3-3.5,0.9-4.2,2.6
			c-0.8,2.1-1.2,8-1.2,14.3V485.4z"/>
		<path style="fill:#FFFFFF;" d="M281.1,447.8c0,1.4,0.2,7.7,0.9,12.2c-0.3,0.9-2.4,1.3-2.9,0.5c-2.1-7.3-7-11.2-14.4-11.2
			c-8.5,0-17.7,7.4-17.7,23c0,15.6,8.8,24,18.1,24c9.3,0,13.6-6.8,15.7-12.1c0.6-0.6,2.5-0.4,2.9,0.5c-0.5,5.8-1.8,10.5-2.9,12.3
			c-4.2,1.2-9.6,2.9-15.6,2.9c-7.5,0-15.2-1.8-20.7-6c-5.5-4.3-9.8-10.8-9.8-20.5c0-9.6,4-16.3,9.3-20.8c5.5-4.6,13.3-7,21.3-7
			C273.1,445.7,278.8,447.6,281.1,447.8z"/>
		<path style="fill:#FFFFFF;" d="M307.5,473.9c-3.1,0-3.2,0.1-3.2,2.3v11.3c0,7.3,0.5,8,3.9,8.5l2.5,0.3c0.6,0.5,0.6,2.3,0,2.7
			c-4.4-0.2-8.2-0.2-11.7-0.2c-3.7,0-7.5,0.1-11.4,0.2c-0.6-0.5-0.6-2.3,0-2.7l1.8-0.2c3.5-0.5,3.9-1.3,3.9-8.5v-29.2
			c0-7.3-0.4-8.1-3.9-8.5l-1.8-0.2c-0.6-0.5-0.6-2.3,0-2.7c3.8,0.2,7.8,0.2,11.4,0.2c3.5,0,7.3-0.1,10.7-0.2c0.6,0.5,0.6,2.3,0,2.7
			l-1.6,0.2c-3.3,0.5-3.8,1.3-3.8,8.5v9.1c0,2.3,0.1,2.3,3.2,2.3h16c3.2,0,3.2-0.1,3.2-2.3v-9.1c0-7.3-0.4-7.9-3.9-8.5l-2.1-0.3
			c-0.6-0.5-0.6-2.3,0-2.7c4.2,0.2,8,0.2,11.7,0.2c3.8,0,7.3-0.1,10.8-0.2c0.6,0.5,0.6,2.3,0,2.7l-1.5,0.2c-3.5,0.5-4,1.3-4,8.5
			v29.2c0,7.3,0.5,7.8,4,8.5l1.8,0.3c0.6,0.5,0.6,2.3,0,2.7c-3.8-0.2-7.6-0.2-11.1-0.2c-3.8,0-7.6,0.1-11.3,0.2
			c-0.6-0.5-0.6-2.3,0-2.7l1.7-0.2c3.5-0.5,3.9-1.3,3.9-8.5v-11.3c0-2.2,0-2.3-3.2-2.3H307.5z"/>
		<path style="fill:#FFFFFF;" d="M366.2,467.4c0,2.2,0.1,2.3,2.2,2.3h5.3c4,0,4.9-0.5,5.7-4.3l0.4-2c0.5-0.6,2.5-0.6,2.8,0.1
			c-0.2,2.5-0.2,5.3-0.2,8.3c0,3,0.1,5.8,0.2,8.3c-0.4,0.7-2.3,0.8-2.8,0.1l-0.4-2c-0.8-3.8-1.7-4.4-5.7-4.4h-5.3
			c-2.1,0-2.2,0.1-2.2,2.4v9.3c0,3.6,0.3,6.1,1.2,7.4c1,1.4,2.5,2,8.1,2c6.7,0,9.3-0.2,13.5-9.1c0.6-0.9,2.5-0.5,2.8,0.4
			c-0.3,4.1-2.2,10.4-3.2,12.5c-4.1-0.2-11.4-0.2-17.8-0.2h-10c-3.7,0-7.5,0.1-13.2,0.2c-0.6-0.5-0.6-2.4,0-2.7l3.6-0.6
			c3.5-0.5,3.9-1,3.9-8.2v-29.2c0-7.1-0.5-7.6-3.9-8.3l-1.9-0.4c-0.7-0.5-0.6-2.3,0.2-2.7c3.6,0.2,7.4,0.2,11.1,0.2h16.3
			c4.9,0,9.3-0.1,10.3-0.2c0.1,1.3,0.6,6.9,1,12.1c-0.3,0.9-2.1,1-2.8,0.3c-0.8-2.7-1.9-5.1-2.9-6.2c-1.5-1.5-3.8-2.4-7.5-2.4h-6.1
			c-2.5,0-2.5,0.2-2.5,3.1V467.4z"/>
		<path style="fill:#FFFFFF;" d="M442.2,485.4c0,5.1,0,10,0.2,12.6c-0.5,0.9-2.7,1.8-4.5,1.8c-0.1,0-2.6-4-6.2-8.5l-17.8-22.4
			c-4.5-5.6-7-8.9-8.4-10c-0.4,0.8-0.4,2.1-0.4,5v15.2c0,6.4,0.3,12.2,1.2,14.3c0.7,1.6,2.5,2.2,4.5,2.5l2.2,0.3
			c0.6,0.6,0.5,2.3,0,2.7c-4.2-0.2-7.2-0.2-10.3-0.2c-2.8,0-5.7,0.1-8.6,0.2c-0.5-0.5-0.6-2.1,0-2.7l1.3-0.2
			c2.1-0.4,3.6-0.9,4.2-2.6c0.8-2.1,1.1-8,1.1-14.3v-19.9c0-4.3-0.1-5.6-0.5-6.7c-0.6-1.3-1.7-2.3-4.4-2.7l-2.2-0.3
			c-0.5-0.6-0.5-2.5,0.3-2.7c3.6,0.2,7.4,0.2,10.6,0.2c2.6,0,4.8-0.1,6.5-0.2c0.8,3.5,5.8,9.5,12.7,17.9l6.5,7.8
			c3.4,4.1,5.6,6.8,7.4,8.6c0.3-0.8,0.3-2.1,0.3-3.5v-10.8c0-6.3-0.3-12.2-1.2-14.3c-0.7-1.6-2.4-2.2-4.5-2.5l-2.1-0.3
			c-0.6-0.6-0.5-2.3,0-2.7c4.2,0.2,7.1,0.2,10.3,0.2c2.8,0,5.6-0.1,8.6-0.2c0.5,0.5,0.6,2.1,0,2.7l-1.4,0.2c-2,0.3-3.5,0.9-4.2,2.6
			c-0.8,2.1-1.2,8-1.2,14.3V485.4z"/>
	</g>
	<g>
		<path style="fill:#D5B05E;" d="M248.9,410.8c-117.3,0-190-107.3-190-206.7C58.9,105.6,135.2,0,248.9,0c71,0,116.1,36.1,141.5,66.4
			c31.9,38.2,50.2,88.4,50.2,137.7c0,50.6-18.2,101.6-49.9,140C365.5,374.5,320.5,410.8,248.9,410.8L248.9,410.8z"/>
		<path style="fill:#FFFFFF;" d="M92.1,204.1c0-92,44-194,156.8-194c107.9,0,157.7,97.9,157.7,194c0,117.9-55.6,197.4-157.7,197.4
			C156,401.5,92.1,327.1,92.1,204.1z"/>
		<path style="fill:#00559F;" d="M101.8,203.7c0-86.5,41.3-182.5,147.5-182.5c101.5,0,148.3,92,148.3,182.5
			c0,110.9-52.3,185.6-148.3,185.6C161.9,389.4,101.8,319.3,101.8,203.7z"/>
		<path style="fill:#FFFFFF;" d="M311.4,265c2.1-2.1,25.2-2.3,23.3-35c-1.7-28.2-37-26.1-37-26.1h-65.6v8.4h8.7v49h-33.2v-49h8.7
			v-8.4h-48.6v8.4h7.5v113.8h-7.5v9.2h48.6v-9.2h-8.7v-54.8h33.2v54.8h-8.7v9.2h66c0,0,39.2,2.9,41.1-34.7
			C341,265.3,313.9,267.1,311.4,265z M272.4,213.1c15-1.7,24.7,1.6,28.4,8.8c1.9,3.8,3,9.1,3,14.5c0,4.4-0.6,9.7-2.5,14.3
			c-5.4,12.7-26.9,10.7-28.9,10.5V213.1z M305.2,315.6c-6.8,14.2-32.8,10.9-32.8,10.9v-55.2c19.1,0,29.1,0.4,34,10.5
			C309.9,288.8,310.5,304.3,305.2,315.6z"/>
		<path style="fill:#D5B05E;" d="M295.1,152.3c7.8,2.4,14.1,6,14.7,6.4c-1,4.2-1.8,8.2-2.5,13.2c-9-4.3-24.6-9.1-55.4-9.1
			c-29.7,0-46.3,4.8-54.7,9.4c0-0.1-0.8-6.4-3.8-13.4c5-2.6,11.6-5.2,15.7-6.4C236.4,144.2,265.2,143.1,295.1,152.3z"/>
		<path style="fill:#E2001A;" d="M251.2,148.6c-1.7,1.1-10.1,4.8-12,5c0.7,0.4,10.6,5.4,12.5,5.4c1.5,0,11.9-4.4,12.8-5.1
			C260.6,152.7,255.4,150.4,251.2,148.6z"/>
		<path style="fill:#E2001A;" d="M273.9,155.3c-0.9,3.3,3.4,5.9,8.1,6.7c4.1,0.7,9.5-0.4,9.5-3.4c0-2.7-4.3-5.5-7.9-6.1
			C278.1,151.6,274.5,153.2,273.9,155.3z"/>
		<path style="fill:#E2001A;" d="M230.8,155.3c0.9,3.3-3.4,5.9-8.1,6.7c-4.1,0.7-9.5-0.4-9.5-3.4c0-2.7,4.3-5.5,7.9-6.1
			C226.6,151.6,230.2,153.2,230.8,155.3z"/>
		<path style="fill:#E2001A;" d="M196.8,160.3c1.2,3.5,2.2,8.7,2.2,8.8c0.7-0.2,7.4-8.6,7.4-8.8C203.1,160.3,200,160.3,196.8,160.3z
			"/>
		<path style="fill:#E2001A;" d="M297.4,160.3c1.1,1.5,7,7.6,7.7,8.8c0.2-1.8,0.6-4.4,1.9-8.8C303.8,160.3,300.6,160.3,297.4,160.3z
			"/>
		<path style="fill-rule:evenodd;clip-rule:evenodd;fill:#D5B05E;" d="M252.6,166.9c-29.8,0-53.9,4.9-53.9,11c0,6.1,24.1,11,53.9,11
			c29.8,0,53.9-4.9,53.9-11C306.5,171.9,282.4,166.9,252.6,166.9z M253.3,184.1c-23.7,0-42.9-2.8-42.9-6.2c0-3.4,19.2-6.2,42.9-6.2
			c23.7,0,42.9,2.8,42.9,6.2C296.3,181.3,277,184.1,253.3,184.1z"/>
		<path style="fill:#D5B05E;" d="M325.1,85.5c-8.1-0.9-16.4,3.4-18.7,5c0-1-3.9-10.4-16.6-10.4c-15.5-0.3-21.6,8.7-21.6,8.7
			c-0.1-5.3-7.9-8.1-12-9.1v-0.5c0,0,0.1,0,0.1-0.1c6.1-2.1,10.5-7.8,10.5-14.7c0-8-5.4-14.9-14-15.5v-7h8.3v-3.3h-8.3V31h-2.9v7.5
			h-8.1v3.4l8.1,0v7c-7.7,0.3-14.1,6.5-14.1,15.5c0,6.9,4.5,12.7,10.7,14.7c0,0,0,0,0.1,0c-0.1,0.2-0.1,0.4-0.2,0.6
			c-4.1,1-12.4,3.4-12.8,8.9c0,0-4.6-9.1-20.7-8.6c-11.6,0.4-19,8.2-19,8.2c-1.6-0.7-7.4-4.4-14.2-4.5c-7.3-0.2-14.1,3.7-17.1,8.3
			c-2,3.2-3.2,6.7-3.2,10.9c-0.3,16.7,16.7,26.8,25.4,39.4c2.1,3.1,5.1,6.9,6.8,11.5c2.1-1.1,14.6-6.6,27.4-9.4
			c24.3-5.2,44-5,67.5,0.1c12.9,2.8,20.1,6.5,24.7,9.1c0,0,2.3-5.2,3.4-6.9c8.2-13.7,25.4-23.5,27.8-40.1
			C343.9,95.9,336.6,86.8,325.1,85.5z M214.4,137.1c-0.7,0.9-1.9,1.2-3.1,1.1c-11-1.3-0.8-17.6-12.4-16.1c-2.1,0.3-3.8,1.5-4.6,3.4
			c-3.6,7.9,12.6,11.2,10,14.7c-1.4,1.9-4.2,1.6-5.2,1.2c-5.7-2-18-20.7-19.5-26c-0.9-3.2-1.7-7-0.3-10.7c1.4-3.6,4.8-5.5,7.9-6
			c3.1-0.5,5.7,0,7.9,2.6c2.1,2.4,2.7,4.1,4.1,6.5c3.2,5.2,6.3,10.3,9.5,15.5c2,3.2,4.9,5.9,6.2,9.4
			C215.2,134.1,215.3,136,214.4,137.1z M223.5,91c5.7,0,7.8,2.2,10.2,4.8c0.5,0.6-13.2,0.7-18.3,0.4C215.5,93.9,219.5,91,223.5,91z
			 M243.6,133.4c-2.9,1.4-6.1-0.2-5.5-3.5c0.2-1.2,0.8-2.4,1.2-3.6c1.1-3.6,0.8-7.4-2.7-9.2c-1.7-0.8-3.8-0.7-5.3,0.2
			c-1.4,0.7-2.5,2.2-2.9,3.6c-1.6,5.3,3.6,6.4,4.6,10.5c0.6,2.5-0.8,3.3-2.5,3.1c-6-0.7-13.3-24.7-14.2-30.8c6.6,0,14.3,1,20.2-1.4
			C240.7,104.5,249.3,130.6,243.6,133.4z M272.2,134.6c-1.7,0.2-3.1-0.6-2.5-3.1c1-4.1,6.2-5.3,4.6-10.5c-0.5-1.5-1.5-2.9-2.9-3.6
			c-1.6-0.8-3.7-1-5.3-0.2c-3.5,1.7-3.8,5.5-2.7,9.2c0.4,1.2,1,2.4,1.2,3.6c0.6,3.2-2.6,4.9-5.5,3.5c-5.7-2.8,2.9-28.9,7.2-31
			c5.8,2.4,13.6,1.4,20.2,1.4C285.4,109.9,278.2,133.9,272.2,134.6z M269,95.9c2.4-2.6,4.5-4.8,10.2-4.8c4,0,8.1,2.9,8.1,5.2
			C282.2,96.6,268.5,96.4,269,95.9z M323.2,115.5c-1.5,5.3-13.9,24-19.5,26c-1,0.4-3.8,0.7-5.2-1.2c-2.6-3.5,13.6-6.8,10-14.7
			c-0.9-1.9-2.5-3.1-4.6-3.4c-11.7-1.5-1.5,14.8-12.4,16.1c-1.2,0.1-2.4-0.2-3.1-1.1c-0.9-1.2-0.8-3-0.3-4.3
			c1.3-3.5,4.2-6.3,6.2-9.4c3.2-5.2,6.3-10.3,9.5-15.5c1.4-2.4,2.1-4.1,4.1-6.5c2.2-2.6,4.8-3.1,7.9-2.6c3,0.5,6.5,2.4,7.9,6
			C324.9,108.5,324.2,112.3,323.2,115.5z"/>
	</g>
</g>
</svg>
